<svg xmlns="http://www.w3.org/2000/svg" width="272.562" height="169.94"><path data-name="Фигура 3" d="M940.287 1166.62c-2.032 4.8-5.771 6.65-10.815 6.25a2.36 2.36 0 0 1-.266 0c-4.755-.77-7.728.58-10.325 5.31-4.472 8.14-12.39 11.86-21.6 11.58-10.224-.3-17.8-5.39-22.29-14.65a3.343 3.343 0 0 0-3.54-2.28q-54.555.075-109.109 0c-1.967 0-2.856.61-3.737 2.41-4.638 9.45-12.471 14.57-22.9 14.53-10.409-.04-18.246-5.11-22.817-14.65a3.352 3.352 0 0 0-3.539-2.3c-11.8.1-23.6.05-35.393.05-3.87 0-5.913-.96-6.045-3.38-.315-5.79-.795-7.57 3.924-9.36 15.963-6.05 31.877-12.22 47.8-18.38a40.691 40.691 0 0 1 14.8-2.68q28.075.03 56.152.01c5.072 0 5.072 0 5.072-4.94 0-4.87-.021-9.75.017-14.62a12.475 12.475 0 0 1 .379-3.15 3.882 3.882 0 0 1 7.386-.09 13.129 13.129 0 0 1 .413 3.41c.04 5.76.066 11.52-.011 17.28-.021 1.58.415 2.12 2.078 2.15 6.816.14 6.815.2 6.815-6.71 0-18.08-.064-36.16.072-54.25.019-2.59-.9-3.64-3.163-4.54q-31.34-12.39-62.605-24.97c-3.017-1.2-3.018-1.2-3.019 2.16 0 6.12.036 12.24-.025 18.35a3.12 3.12 0 0 0 1.862 3.33 12.119 12.119 0 0 1 6.111 14.63A12.266 12.266 0 0 1 739 1095.9a12.451 12.451 0 0 1-11.418-10.78c-.459-2.89.8-5.05 3.225-5.55 2.237-.47 4.013.95 4.667 3.9.5 2.26 1.479 4.04 3.957 4.4a4.19 4.19 0 0 0 4.446-2.25c1.33-2.32.6-4.93-2.143-6.18-4.437-2.03-5.859-5.5-5.807-10.07.088-7.62 0-15.25.048-22.87a3 3 0 0 0-1.716-3.15c-6.061-3.32-8.4-10.14-5.69-16.1a12.528 12.528 0 0 1 16.293-6.46c9.661 3.71 19.248 7.61 28.859 11.45q27.105 10.83 54.2 21.68c7.556 3.02 10.077 6.76 10.081 14.99 0 6.32 0 6.21 6.367 6.32 2.2.04 2.7-.71 2.6-2.72-.281-6.02 1.894-10.8 7.664-13.31a12.367 12.367 0 0 1 17.334 11.28c.083 3.87.423 6.89 4.393 8.68 1.644.74 2.665 2.54 3.75 4.07 4.829 6.78 9.7 13.54 14.5 20.35a7.255 7.255 0 0 0 3.9 2.93c8.075 2.6 16.115 5.32 24.169 7.99 9.337 3.11 13.333 8.59 13.336 18.33 0 4.43.04 8.87-.021 13.3-.021 1.57.095 2.88 1.636 3.84 1.384.86 1.732 2.61 2.653 3.89v12.76Zm-61.42-18.9c-1.06-.72-2.054-.42-2.98-.43-7.625-.03-15.25 0-22.876-.03a12.543 12.543 0 0 1-3.406-.41 3.457 3.457 0 0 1-2.539-3.37 3.654 3.654 0 0 1 2.219-3.87 7.439 7.439 0 0 1 3.118-.54c14.985.02 29.97-.04 44.954.03a25.106 25.106 0 0 1 18.239 7.35 3.3 3.3 0 0 0 2.528 1.17c2.747-.06 5.5-.01 8.245-.03.582 0 1.533.2 1.57-.56.122-2.57.443-5.23-.115-7.67-.3-1.32-2.52-.38-3.846-.64-.434-.09-.875-.14-1.3-.25a3.64 3.64 0 0 1-3.111-3.74 3.724 3.724 0 0 1 2.958-3.88 7.239 7.239 0 0 1 3.156-.27c2.278.29 2.329-.93 1.736-2.48-1.167-3.03-3.537-4.7-6.56-5.7q-12.592-4.14-25.14-8.41a17.64 17.64 0 0 0-5.727-.91c-10.548-.01-21.1.1-31.644-.22a11.6 11.6 0 0 1-11.188-11.07c-.272-4.06-.185-8.15-.2-12.22-.028-6.42-.009-6.32-6.363-6.42-2.163-.03-2.628.68-2.623 2.71q.093 38.01-.007 76.02c-.006 2.16.477 2.87 2.75 2.84 9.131-.13 18.265-.05 27.4-.05 4.127 0 4.114-.01 4.76-4.17.136-.87.415-1.72.627-2.58a27.357 27.357 0 0 1 5.365-10.2Zm-124.46-.44c4.063 5.07 6.431 10.1 6.568 16 .038 1.65 1.317 1.38 2.341 1.38l64.4.03c1.6.01 2.19-.45 2.151-2.1-.094-3.99-.182-7.98.026-11.96.136-2.6-.5-3.44-3.307-3.43-22.972.13-45.946.08-68.919.08h-3.256Zm-14.16-119.48c-2.057.31-3.729 1.04-4.356 3.09a4.138 4.138 0 0 0 1.518 4.95 13.216 13.216 0 0 0 2.838 1.42q34.986 13.995 69.973 27.98c1.743.7 2.9 1.17 2.957-1.48a6.74 6.74 0 0 1 1.7-4.12c1.45-1.66.47-2.06-.956-2.62q-35.376-14.1-70.734-28.23c-.977-.4-2.001-.68-2.94-.99Zm-4.363 153.88a17.18 17.18 0 1 0-.247-34.36 17.181 17.181 0 1 0 .247 34.36Zm161.671-.01a17.169 17.169 0 1 0-16.907-17.51 17.309 17.309 0 0 0 16.907 17.51Zm-76.608-79.9v31.36c0 5.97 0 5.83 5.9 6.01 2.542.09 3.039-.78 3.031-3.12-.079-22.5-.045-45-.055-67.51a18.8 18.8 0 0 0-.194-2.9 3.985 3.985 0 0 0-3.5-3.47 4.257 4.257 0 0 0-4.391 1.8c-.91 1.14-.781 2.5-.783 3.81q-.017 17.01-.008 34.02Zm64.847 3.2c-4.82-6.63-9.239-12.8-13.761-18.88a7 7 0 0 0-4.535-2.54c-3.7-.67-7.426-.2-11.138-.33-1.351-.05-1.3.87-1.3 1.79 0 5.13-.049 10.27.034 15.4a4.239 4.239 0 0 0 4.493 4.54c8.504.07 17.013.02 26.207.02Zm-172.638 47.95c-10.084 3.88-19.529 7.52-28.974 11.15 8.368.59 16.584.58 24.8.6a1.221 1.221 0 0 0 1.451-1.38 28.054 28.054 0 0 1 2.723-10.37Zm214.456 11.75c4.7 0 4.7 0 4.7-4.45 0-4.41 0-4.41-5.54-4.41-4.7 0-4.7 0-3.954 4.42a4.341 4.341 0 0 1 .163 1.04c-.237 2.86 1.041 3.97 3.838 3.4a4.191 4.191 0 0 1 .793 0Zm-68.012-89.41c1.468-.82 4.678 1.69 4.478-2.61-.195-4.2-1.68-6.48-4.68-6.39-2.844.08-4.081 2.2-4.408 6.07-.363 4.32 2.702 2.41 4.61 2.93Zm-115.628 89.31a8.322 8.322 0 0 1-8.29 8.26 8.32 8.32 0 0 1 .138-16.64 8.3 8.3 0 0 1 8.153 8.38Zm145.718.06a8.263 8.263 0 0 1 8.081-8.43 8.311 8.311 0 0 1 .263 16.62 8.291 8.291 0 0 1-8.343-8.19Z" transform="translate(-667.719 -1019.84)" style="fill:#fff;fill-rule:evenodd"/></svg>