<svg xmlns="http://www.w3.org/2000/svg" width="240" height="240.38"><path data-name="Прямоугольник 12 копия" d="M1394.04 1661.99c-.4-.79-1.26-.81-1.94-1.1q-17.55-7.425-35.11-14.83a17.787 17.787 0 0 1-2.12-.99 3.3 3.3 0 0 1-1.56-4.39c.75-1.89 2.34-2.44 4.23-2.03a15.983 15.983 0 0 1 2.61 1.01c11.13 4.69 22.28 9.35 33.39 14.09a3.875 3.875 0 0 0 3.68-.06q34.785-17.49 69.64-34.85a7.05 7.05 0 0 0 2.43-1.77q15.33-18.51 31.26-36.49a14.222 14.222 0 0 0 3.81-8.62c.42-6.59-6.5-12.85-13.06-11.74a9.2 9.2 0 0 0-5.21 3.34c-11.32 12.43-22.15 25.27-32.88 38.2-2.09 2.51-4.23 4.28-7.59 4.19a13.149 13.149 0 0 0-1.87.18c-1.63.17-3.42-.02-4.84.63-1.56.72-.83 2.77-1.27 4.2a18.765 18.765 0 0 1-22.9 12.73c-12.69-3.52-25.39-6.97-38.08-10.48-2.68-.74-3.77-2.4-3.21-4.57.52-2.03 2.54-2.99 5.14-2.28q14.535 3.975 29.06 8.01c2.93.81 5.84 1.69 8.79 2.41 6.44 1.57 12.28-1.57 14.19-7.54 1.88-5.86-1.01-11.68-7.08-14.21-20.43-8.53-41.08-16.48-62.44-22.43-9.71-2.7-19.5-4.98-29.71-4.46-20.16 1.03-38.5 6.63-53.35 21.09-1.75 1.7-3.69 1.75-5.19.27-1.52-1.5-1.55-3.34.15-5.21a61.371 61.371 0 0 1 15.97-12.15c12.72-7.04 26.48-10.27 40.95-11.07 13.53-.75 26.29 2.65 39.03 6.39a516.824 516.824 0 0 1 58.31 21.49c1.46.63 2.23.59 3.29-.68 7.82-9.35 16.04-18.37 23.92-27.66 6.81-8.03 16.88-7.33 23.67-2.22 1.32 1 1.97 1.12 3.2-.17 5.76-6.08 14.41-6.73 21.52-2.08a19.993 19.993 0 0 1 8.88 13.43v3.28c-1.1 5.84-4 10.67-7.98 15.03-10.06 11.01-19.62 22.46-29.12 33.96a11.9 11.9 0 0 1-4.03 3.11q-23.04 11.475-46.04 23.01c-9.25 4.65-18.48 9.35-27.72 14.03h-2.82Zm44.41-62.49c1.03-.1 2.26-.31 3.51-.34 2.92-.07 5.33-.83 7.08-3.52a63.412 63.412 0 0 1 5.22-6.3q9.825-11.46 19.64-22.92c.52-.6 1.62-1.05.35-2.17-4.31-3.76-10.17-3.58-13.96.72-7.58 8.6-15.09 17.26-22.63 25.9-3.23 3.7-3.21 3.7-.83 7.8a1.238 1.238 0 0 0 1.62.83Zm-1.74-60.88a56.891 56.891 0 0 0 11.74-15.6c9.79-19.46 10.35-39.24.5-58.73-9.88-19.54-25.99-31.2-47.71-34.55-18.59-2.87-35.36 1.87-49.9 13.7a62.046 62.046 0 0 0-22.96 41.08 64.2 64.2 0 0 0 39.88 68.1c1.8.72 3.69 1.25 5.5 1.95 2.33.89 3.27 2.58 2.62 4.5-.7 2.05-2.58 2.95-4.93 2.17-26.89-9.01-43.93-27.21-49.49-55.09a70.55 70.55 0 0 1 48.86-81.09c25.4-7.62 48.62-2.53 68.5 15.12 17.39 15.45 24.99 35.33 23.46 58.46a67.747 67.747 0 0 1-16.07 39.68c-.7.84-1.38 1.7-2.07 2.55a2.151 2.151 0 0 0-.1.45c4.57-.63 9.06-1.25 13.55-1.84 2.76-.37 4.53.67 4.86 2.77.35 2.24-1.15 3.88-3.91 4.27-8.18 1.15-16.37 2.32-24.56 3.45-3.16.43-4.78-.94-4.79-4.1q-.045-12.42 0-24.85c0-2.71 1.41-4.36 3.56-4.31s3.44 1.69 3.45 4.44c.02 4.92.01 9.85.01 14.77v2.7Zm-136.9 86.25c7.57 0 15.14.01 22.71-.02a11.515 11.515 0 0 1 4.76.96c4.13 1.82 8.32 3.49 12.48 5.27 2.56 1.09 3.52 2.89 2.7 4.9-.85 2.11-2.81 2.69-5.53 1.63a2.6 2.6 0 0 1-.44-.16c-8.62-4.85-17.86-6.08-27.66-5.62-10.59.5-21.23.11-31.84.11a10.594 10.594 0 0 1-2.33-.11 3.352 3.352 0 0 1-2.87-3.49 3.215 3.215 0 0 1 3.2-3.39c2.81-.13 5.62-.08 8.43-.08 5.46-.01 10.93 0 16.39 0Zm96.08-154.69h-16.48l.11 51.83h8.45l.25-24.26h7.67a21.558 21.558 0 0 0 8.78-1.66 12.807 12.807 0 0 0 5.73-4.79 14.352 14.352 0 0 0 0-14.65 13.045 13.045 0 0 0-5.73-4.78 21.063 21.063 0 0 0-8.78-1.69Zm-.49 20.39h-7.18v-13.21h7.18a9.261 9.261 0 0 1 6.03 1.71 6.823 6.823 0 0 1 0 9.79 9.261 9.261 0 0 1-6.03 1.71Zm-24.33 13.13h26.76v8.45h-26.76v-8.45Z" transform="translate(-1271.75 -1421.62)" style="fill:#fff;fill-rule:evenodd"/></svg>