<svg xmlns="http://www.w3.org/2000/svg" width="239.875" height="179.74"><path data-name="Фигура 5" d="M755.863 1260.31a1.2 1.2 0 0 0 .3-.35c3.243-10.59 9.337-15.09 20.445-15.09 11.712 0 23.424-.02 35.135 0 10.949.02 19.071 8.12 19.074 19.07q.023 70.8 0 141.58c0 10.95-8.128 19.06-19.07 19.08q-18.27.03-36.54 0c-9.482-.01-16.455-5.42-18.911-14.64a3.464 3.464 0 0 0-.433-.79v-148.86Zm8.1 27.61c-.2.13-.406.27-.609.41a41.779 41.779 0 0 1-.035 4.67 5.113 5.113 0 0 0 1.965 4.65c2.855 2.66 5.548 5.49 8.308 8.25 3.742 3.74 3.676 3.67 0 7.52-1.289 1.35-2.017 1.35-3.254-.01-2.1-2.31-4.4-4.44-6.989-7.01 0 2.2.132 3.77-.034 5.3a5.152 5.152 0 0 0 1.95 4.67c2.806 2.59 5.439 5.37 8.143 8.07 3.946 3.95 3.9 3.9.028 7.85-1.127 1.15-1.8 1.24-2.921.03-2.176-2.36-4.511-4.57-7.166-7.22 0 2.21.125 3.78-.032 5.31a5.154 5.154 0 0 0 1.933 4.67c2.813 2.58 5.441 5.37 8.145 8.07 3.956 3.96 3.911 3.91.053 7.85-1.112 1.14-1.782 1.29-2.921.05-2.176-2.36-4.516-4.57-7.178-7.23 0 2.21.118 3.76-.03 5.3a5.148 5.148 0 0 0 1.916 4.67c2.82 2.58 5.442 5.37 8.147 8.07 3.965 3.97 3.893 3.9.091 7.87-1.307 1.36-1.97 1.1-3.091-.11-2.128-2.3-4.418-4.46-7.033-7.06 0 2.26.1 3.89-.029 5.5a4.838 4.838 0 0 0 1.738 4.28c2.858 2.65 5.55 5.48 8.31 8.24 4.015 4.01 3.965 3.96-.056 8.01-1.139 1.15-1.769 1.03-2.749-.07-2.145-2.4-4.388-4.72-6.591-7.07-.208.16-.416.31-.623.46 0 1.62.1 3.25-.028 4.85a4.839 4.839 0 0 0 1.722 4.29c2.861 2.65 5.552 5.48 8.312 8.24 4.1 4.09 4.061 4.06-.2 8.18-.983.95-1.52.9-2.4-.05-2.252-2.42-4.6-4.74-7.313-7.52a66.5 66.5 0 0 0 .042 7.2 11.045 11.045 0 0 0 9.265 9.8c2.244.45 4.53.01 6.769.27 2.212.25 2.644-.61 2.642-2.68q-.085-79.8-.045-159.59c0-.39-.03-.78 0-1.16.08-.94-.192-1.45-1.276-1.41-2.34.07-4.694-.09-7.021.1a11.143 11.143 0 0 0-8.44 4.83c-.876 1.22-1.09 2.11.25 3.32 2.832 2.56 5.449 5.36 8.154 8.06 3.539 3.54 3.431 3.44.13 7.04-1.587 1.73-2.488 1.59-3.938-.07-1.942-2.23-4.152-4.22-6.622-6.68a35.441 35.441 0 0 1-.031 4.43 6.367 6.367 0 0 0 2.465 6.09c2.621 2.32 5 4.92 7.486 7.4 4.243 4.25 4.214 4.22-.2 8.35-.909.85-1.417.85-2.237-.05-2.246-2.45-4.575-4.83-6.874-7.23Zm59.376 19.07c-.169-.09-.338-.19-.508-.28-1.375 1.43-2.729 2.89-4.131 4.3-4 4.03-3.964 3.97-8.013-.03-1.12-1.1-1.054-1.7.03-2.74 3.871-3.74 7.651-7.58 11.449-11.39a2.616 2.616 0 0 0 1.188-1.91c-.044-2.22-.014-4.45-.014-7.43-1.873 1.93-3.241 3.38-4.646 4.79-4 4.01-3.959 3.96-8.015-.05-1.133-1.12-1.022-1.71.046-2.74 3.869-3.75 7.65-7.58 11.449-11.4a2.571 2.571 0 0 0 1.181-1.9c-.046-2.23-.015-4.45-.015-6.68a23.872 23.872 0 0 0-4.489 3.88c-4.231 4.26-4.2 4.21-8.342-.06-.971-1-.841-1.52.07-2.4 2.973-2.87 5.868-5.83 8.792-8.75 3.406-3.41 3.3-4.68-.643-7.6a11.247 11.247 0 0 0-4-1.85c-2.468-.64-4.987-.17-7.453-.45-2.368-.27-2.745.66-2.743 2.83q.1 77.79.07 155.6c0 2.07-.923 4.83.439 6.03 1.164 1.02 3.853.31 5.867.37 8.466.27 14.243-6.29 11.959-16.92-1.462 1.55-2.764 3-4.136 4.39-4.026 4.06-4 4.01-8.007.04-1.051-1.04-1.223-1.63-.051-2.75 3.4-3.22 6.406-6.89 10.037-9.81 3.777-3.03 2.338-6.67 2.3-10.32a51.2 51.2 0 0 0-4.29 4.12c-4.021 4.05-3.993 4-8.008.03-1.065-1.06-1.191-1.65-.035-2.75 3.391-3.22 6.4-6.9 10.036-9.81 3.778-3.03 2.314-6.67 2.3-10.3a47.971 47.971 0 0 0-4.3 4.11c-4.078 4.11-4.056 4.07-8.171-.16-.916-.94-.981-1.45-.01-2.39 3.478-3.36 6.635-7.1 10.351-10.16 3.652-3.01 2.04-6.59 2.16-10.11a43.5 43.5 0 0 0-4.337 4.11c-4.075 4.1-4.051 4.06-8.172-.18-.928-.95-.951-1.47.006-2.39 3.475-3.37 6.638-7.09 10.349-10.16 3.637-3.01 2.044-6.58 2.151-10.09a43.382 43.382 0 0 0-4.342 4.1c-4 4.03-3.97 3.98-8.011-.02-1.106-1.09-1.086-1.68.014-2.74 3.875-3.74 7.652-7.58 11.45-11.39a2.591 2.591 0 0 0 1.194-1.9c-.037-2.23-.008-4.46-.008-6.69Zm-33.747 27.5v77.93c0 4.72 0 4.59 4.741 4.77 2.213.08 2.835-.44 2.832-2.76q-.114-78.63-.059-157.26c0-4.84 0-4.73-4.858-4.88-2.076-.06-2.718.44-2.711 2.64.083 26.52.053 53.04.053 79.56Zm138.691 30.62c0 5.54.032 11.08-.021 16.62a3.055 3.055 0 0 0 1.817 3.27 10.355 10.355 0 0 1 5.686 9.54c.057 4.84.032 9.68.008 14.51-.015 2.96-1.333 4.31-4.267 4.31q-14.523.03-29.047 0c-2.788-.01-4.12-1.38-4.137-4.2-.029-4.75-.017-9.51 0-14.27a10.745 10.745 0 0 1 6-10.08 2.415 2.415 0 0 0 1.516-2.5q-.072-17.2 0-34.4c.007-1.5-.355-1.99-1.926-1.98q-17.217.09-34.434.01a2.406 2.406 0 0 0-2.529 1.47 10.765 10.765 0 0 1-10.066 6.04c-4.685.02-9.37.01-14.055 0-3.151-.01-4.479-1.28-4.485-4.33q-.027-14.385 0-28.78c0-2.97 1.318-4.29 4.261-4.31 4.763-.03 9.526-.02 14.289 0a10.754 10.754 0 0 1 10.061 6.04 2.424 2.424 0 0 0 2.531 1.47q17.217-.075 34.435.01c1.583.01 1.924-.51 1.917-1.99q-.082-17.19 0-34.4a2.422 2.422 0 0 0-1.523-2.5 10.771 10.771 0 0 1-6-10.08c-.01-4.76-.024-9.52.006-14.28.017-2.82 1.346-4.18 4.142-4.19q14.64-.03 29.281.01c2.644 0 4 1.4 4.024 4.07.037 4.76.006 9.52.012 14.27a10.881 10.881 0 0 1-6.1 10.27 2.234 2.234 0 0 0-1.42 2.31q.058 17.325 0 34.64c-.006 1.39.306 1.87 1.8 1.87 11.556-.07 23.112-.05 34.669-.02a2.237 2.237 0 0 0 2.355-1.36 10.937 10.937 0 0 1 10.47-6.16c4.606.04 9.214 0 13.82.02 3.083.01 4.375 1.31 4.38 4.43q.021 14.28 0 28.55c0 3.11-1.3 4.42-4.379 4.44-4.762.02-9.526.03-14.289-.01a10.628 10.628 0 0 1-9.88-5.94 2.588 2.588 0 0 0-2.714-1.56c-11.4.04-22.8.06-34.2-.02-1.69-.01-2.066.52-2.04 2.11.087 5.69.03 11.39.03 17.08Zm-7.479-30.38v-43.76c0-4.94 0-4.83-4.993-4.98-2.037-.06-2.58.44-2.575 2.54q.117 44.925.054 89.86c0 5.06 0 4.96 5.11 5.09 1.933.05 2.463-.45 2.452-2.42-.089-15.44-.052-30.89-.052-46.33Zm-3.686-71.15c-3.279 0-6.558.03-9.835-.02-1.07-.02-1.535.26-1.511 1.43.067 3.19-.041 6.39.051 9.59a3.767 3.767 0 0 0 4.008 3.96q7.142.12 14.285.01c2.68-.04 4.117-1.56 4.169-4.3.059-3.04-.04-6.08.04-9.12.034-1.25-.4-1.6-1.606-1.58-3.201.07-6.403.03-9.603.03Zm-71.3 71.16c0 3.2.033 6.39-.018 9.59-.018 1.11.161 1.72 1.5 1.68 3.12-.09 6.246.03 9.366-.05 2.673-.07 4.114-1.57 4.146-4.32q.079-6.9 0-13.81c-.035-2.84-1.518-4.27-4.38-4.32-2.888-.05-5.78.06-8.664-.05-1.486-.05-2.05.33-1.987 1.92.119 3.12.036 6.24.036 9.36Zm142.455-.01c0-3.2-.035-6.4.019-9.59.019-1.13-.183-1.71-1.511-1.67-3.12.09-6.246-.03-9.367.05-2.677.06-4.105 1.56-4.136 4.32q-.075 6.9 0 13.81c.034 2.83 1.516 4.27 4.387 4.32 2.966.05 5.935-.05 8.9.04 1.3.03 1.777-.32 1.738-1.69-.094-3.19-.031-6.39-.031-9.59Zm-71.284 71.17c3.279 0 6.558-.04 9.836.02 1.089.02 1.518-.3 1.5-1.45-.064-3.11.031-6.24-.039-9.35-.062-2.71-1.542-4.17-4.271-4.2q-7.026-.09-14.053 0a3.819 3.819 0 0 0-4.141 4.08c-.08 3.12.033 6.24-.05 9.36-.033 1.27.43 1.59 1.621 1.56 3.193-.07 6.395-.02 9.596-.02Zm-29.849-67.41h13.345c5.361 0 5.259 0 5.377-5.29.044-1.95-.642-2.27-2.379-2.25-9.833.07-19.667.03-29.5.03-5.917 0-5.863 0-5.714 5.89.036 1.4.528 1.66 1.779 1.64 5.696-.05 11.393-.02 17.091-.02Zm60 0h13.346c5.34 0 5.232 0 5.354-5.32.046-1.99-.713-2.23-2.406-2.22-9.911.07-19.823.03-29.735.03-5.478 0-5.416 0-5.454 5.44-.012 1.59.342 2.14 2.038 2.11 5.617-.11 11.236-.04 16.855-.04Z" transform="translate(-755.875 -1244.88)" style="fill:#fff;fill-rule:evenodd"/></svg>