<svg xmlns="http://www.w3.org/2000/svg" width="221.28" height="240.34"><path data-name="Фигура 6" d="M1429.18 1193.64a1.977 1.977 0 0 0 .5.43c6.7 2.47 9.81 7.23 9.49 14.4a34.629 34.629 0 0 1-3.74 13.44 188.815 188.815 0 0 1-12.17 21.62c-.5.79-.99 1.58-1.62 2.56 6.2 1.97 12.26 3.88 18.31 5.81q5.79 1.83 11.57 3.7a14.08 14.08 0 0 1 8.73 7.63q4.5 9.525 8.93 19.09c1.13 2.44.53 4.43-1.48 5.35-1.98.9-3.82.02-5-2.47q-4.335-9.21-8.63-18.45a7.11 7.11 0 0 0-4.19-4.16c-8.21-2.66-16.43-5.27-24.87-7.97a4.548 4.548 0 0 0 .74 2.31c5.85 12.69 11.64 25.4 17.58 38.04a16.127 16.127 0 0 1 .29 13.79q-16.98 40.845-33.88 81.73a4.588 4.588 0 0 0 .05 4.16c4.11 8.59 8.09 17.24 12.13 25.86 2.31 4.92 6.06 6.33 10.9 4.07q35.25-16.515 70.49-33.07c4.98-2.33 6.24-6.05 3.84-11.17q-18.165-38.925-36.36-77.83c-1.56-3.35-1.24-5.47.99-6.43 2.17-.94 3.9.12 5.41 3.36q18.195 38.925 36.38 77.84c4.12 8.84 1.3 16.66-7.48 20.79q-35.13 16.515-70.27 32.98c-8.36 3.92-16.33.99-20.27-7.38-3.02-6.42-6.01-12.86-9.02-19.29-.35-.76-.76-1.5-1.36-2.66-.99 2.32-1.84 4.26-2.65 6.22-2.26 5.48-4.49 10.98-6.78 16.44-3.55 8.47-11.26 11.72-19.73 8.23q-20.955-8.64-41.88-17.38c-2.65-1.1-3.64-2.97-2.76-5.07.83-1.96 2.85-2.56 5.41-1.5q20.61 8.52 41.23 17.1c5.7 2.37 9.05.96 11.45-4.85q23.7-57.3 47.46-114.58a10.015 10.015 0 0 0-.19-8.73q-9.975-21.3-19.75-42.71a14.373 14.373 0 0 0-5.86-6.79c-1.01-.58-1.71-.77-1.8.77a18.52 18.52 0 0 1-.41 3.25c-.63 2.63-.44 4.62 1.89 6.77 3.99 3.69 4.2 9.89 1.24 14.44a11.9 11.9 0 0 1-13.55 4.8 11.759 11.759 0 0 1-8.25-11.99 11.588 11.588 0 0 1 9.27-10.93c1.54-.31 2.07-.88 2.12-2.41.08-1.93.45-3.86.71-5.92a3.991 3.991 0 0 0-2.69.57c-14.77 5.63-29.53 11.32-44.31 16.92a8.59 8.59 0 0 0-5.18 5.03q-23.955 57.975-47.94 115.93c-2.13 5.17-.61 8.69 4.6 10.87 4.1 1.71 8.22 3.38 12.31 5.1 2.56 1.08 3.5 2.84 2.72 4.91-.8 2.1-2.83 2.73-5.48 1.65-4.4-1.8-8.81-3.57-13.18-5.45-7.68-3.32-11.04-11.28-7.84-19.04q24.18-58.62 48.49-117.2a14.331 14.331 0 0 1 8.46-8.24q22.59-8.655 45.17-17.3a3.281 3.281 0 0 1 1.1-.38c5.06.11 5.34-3.4 5.86-7.18 1.09-7.96 2.43-15.9 5.1-23.52a29.7 29.7 0 0 1 7.84-12.33c1.82-1.67 4.12-2.4 6.19-3.58h5.62Zm2.91 14.28c.12-2.96-.66-5.45-3.6-6.73-2.5-1.09-5.13-.29-7.45 2.34a27.166 27.166 0 0 0-5.51 10.46c-2.17 7.27-3.2 14.76-4.49 22.21-.62 3.62-.59 3.5 2.62 5.28 1.55.86 2.17.52 3.06-.85a196.29 196.29 0 0 0 12.2-21.56 27.686 27.686 0 0 0 3.17-11.15Zm-29.89 54.16a4.665 4.665 0 0 0-4.9 4.54 4.814 4.814 0 0 0 4.77 4.97 4.66 4.66 0 0 0 4.72-4.72 4.547 4.547 0 0 0-4.59-4.79Zm-69.13 79.11c-.03-20.33 15.2-37.47 34.95-39.5a39.369 39.369 0 0 1 42.92 31.56 37.136 37.136 0 0 1 .83 7.2c0 2.37-1.35 3.89-3.4 3.97-2.12.08-3.56-1.16-3.66-3.65-.31-7.66-2.42-14.69-7.51-20.49-8.94-10.19-20.25-14.06-33.31-10.43-13.12 3.64-21.19 12.66-23.28 26.25a32 32 0 0 0 27.27 36.82 32.543 32.543 0 0 0 32.72-16.38c.37-.69.68-1.41 1.11-2.06a3.439 3.439 0 0 1 4.67-1.34c1.8.97 2.18 2.53 1.66 4.4a6.861 6.861 0 0 1-.57 1.27 39.332 39.332 0 0 1-73.92-11.49 53.6 53.6 0 0 1-.48-6.13Zm158.06 38.33c-.01 1.89-.77 3.05-2.22 3.57a3.333 3.333 0 0 1-4-1.09 11.129 11.129 0 0 1-1.11-2.04q-10.545-22.44-21.09-44.89c-.3-.63-.59-1.27-.83-1.93a3.5 3.5 0 0 1 6.06-3.34 7.8 7.8 0 0 1 .92 1.62q10.74 22.86 21.48 45.74a5.176 5.176 0 0 1 .79 2.36Zm-40.99-42.7c1.3 0 2.21 1.34 2.99 3q8.115 17.385 16.31 34.73c1.79 3.81 3.6 7.61 5.36 11.44 1.14 2.48.63 4.45-1.33 5.4-1.99.97-3.87.16-5.04-2.32q-10.965-23.28-21.89-46.58c-1.38-2.96.01-5.61 3.6-5.67Z" transform="translate(-1294.16 -1193.66)" style="fill:#fff;fill-rule:evenodd"/></svg>