<svg xmlns="http://www.w3.org/2000/svg" width="204.875" height="204.72"><path data-name="Фигура 7" d="M781.768 1502.68c-1.473-2.94-2.807-5.79-4.308-8.56a20.72 20.72 0 0 1 12.053-30.16c1.883-.54 3.218-2.08 4.737-3.24a34.443 34.443 0 0 1 22.027-7.42 27.976 27.976 0 0 1 7.924 1.2 67.487 67.487 0 0 1 18.13 8.22c8.809 5.99 12.6 14.6 11.461 25.26-.274 2.57-.327 2.54 2.293 2.13a32.316 32.316 0 0 1 10.478-.08c1.107.19 1.7.33 1.336-1.32-2.435-11.21 3.106-20.88 14-24.68 1.938-.68 3.343-2.15 4.915-3.35a34.465 34.465 0 0 1 22.04-7.38 27.969 27.969 0 0 1 7.923 1.21 73.766 73.766 0 0 1 17.972 8.1 26.407 26.407 0 0 1 10.028 31.78c-1.069 2.75-2.288 5.43-3.467 8.21 1 .24 1.939.39 2.828.67a9.846 9.846 0 0 1 6.687 10.81 9.738 9.738 0 0 1-8.979 8.49c-1.1.06-1.62.24-1.939 1.48a32.365 32.365 0 0 1-14.378 19.88 2.118 2.118 0 0 0-1.191 2.12c.1 2.4-.669 5.22.348 7.09.971 1.78 4 2.04 6.138 2.94q10.911 4.59 21.859 9.1c7.756 3.22 11.327 8.53 11.328 16.89v41.9c0 3.29-1.019 4.32-4.277 4.33-6.745 0-13.491.05-20.236-.04-1.51-.01-1.977.33-1.96 1.92.088 7.91.045 15.82.037 23.73 0 3.01-1.091 4.11-4.078 4.11q-71.86.015-143.72 0c-3.136 0-4.18-1.05-4.182-4.21-.006-7.91-.042-15.82.033-23.73.014-1.48-.426-1.83-1.848-1.81-6.814.07-13.629.03-20.443.03-3.131-.01-4.176-1.06-4.177-4.22q-.006-21.465 0-42.93a16.248 16.248 0 0 1 10.473-15.58q13.676-5.73 27.383-11.4a2.664 2.664 0 0 0 1.868-2.64c.515-4.5-.686-7.58-4.727-10.35-5.895-4.04-9.172-10.3-10.935-17.22a1.466 1.466 0 0 0-1.587-1.39 9.9 9.9 0 0 1-9.533-9.54 10.085 10.085 0 0 1 8.253-10.15c.4-.08.807-.11 1.413-.2Zm113.2 36.46c1.27 0 2.163-.01 3.055 0a9.909 9.909 0 0 1 2.751 19.42 15.5 15.5 0 0 1-5.116.35c-1.238-.03-1.721.32-2.055 1.61-1.8 6.91-5.185 13.09-11.077 17.13-3.853 2.64-4.983 5.56-4.5 9.84.164 1.45.488 2.08 1.916 2.47q22.024 6.045 44.014 12.22c9.389 2.64 13.5 8.02 13.581 17.79.012 1.53.529 1.79 1.892 1.77 5.368-.07 10.738-.1 16.1.01 1.572.03 1.929-.43 1.921-1.95-.063-12.45-.033-24.91-.037-37.36 0-5.89-1.992-8.87-7.374-11.11-9.885-4.12-19.757-8.27-29.657-12.35a3.746 3.746 0 0 1-2.65-3.92c.069-3.98.063-7.98 0-11.97a3.721 3.721 0 0 1 2.184-3.63A25.938 25.938 0 0 0 934 1519.35c.343-2.38 1.521-3.3 3.923-3.33.964-.02 1.932.05 2.89-.03a3.285 3.285 0 1 0 .05-6.57c-1.095-.08-2.2.02-3.3-.04a3.171 3.171 0 0 1-3.267-3.25 13.08 13.08 0 0 1 1.172-7 70.34 70.34 0 0 0 3.156-7.38 19.889 19.889 0 0 0-9.709-24.87c-2.509-1.27-5.129-2.32-7.661-3.55-11.2-5.42-21.654-4.31-31.4 3.46a21.093 21.093 0 0 1-7.062 4.1 12.162 12.162 0 0 0-7.319 6.58 14.264 14.264 0 0 0-.73 11 9.664 9.664 0 0 0 6.874 6.89 23.327 23.327 0 0 1 2.817 1.26c13.707 6.39 19.477 21.35 13.608 35.3-.983 2.33-1.978 4.65-3.072 7.22Zm-66.9 0c-1.8-3.63-3.513-6.91-5.083-10.25-4.878-10.38-.62-22.79 9.824-27.31 4.391-1.9 7.8-5.06 11.857-7.32a2.69 2.69 0 0 0 1.057-1.47 19.977 19.977 0 0 0-9.09-25.78c-3.478-1.78-7.078-3.34-10.677-4.88a26.831 26.831 0 0 0-16.153-1.54c-5.3 1.06-9.616 3.9-13.757 7.15a12.623 12.623 0 0 1-3.988 2.49c-9.389 2.89-13.154 11.64-8.837 20.44 1.634 3.32 3.279 6.65 4.985 9.94 1.089 2.1.8 4.32.5 6.45a2.854 2.854 0 0 1-3.021 2.33c-1.032.02-2.067-.03-3.1.02a3.3 3.3 0 1 0-.1 6.59c.891.06 1.789.01 2.684.02 2.493.03 3.661.98 4.022 3.46a25.769 25.769 0 0 0 13.816 19.84 4.187 4.187 0 0 1 2.42 4.15c-.088 3.58-.025 7.16-.026 10.74 0 3.34-.325 3.84-3.35 5.1-9.822 4.09-19.634 8.2-29.473 12.25-4.615 1.9-6.825 5.32-6.827 10.24 0 12.66.024 25.32-.035 37.98-.007 1.5.3 2 1.9 1.97 5.161-.11 10.33-.17 15.486.02 2.169.08 2.56-.61 2.535-2.61-.1-8.29 4.669-14.55 12.561-16.74q20.136-5.6 40.275-11.19c2.169-.6 5.191-.48 6.251-2.08s.236-4.38.369-6.64a2.435 2.435 0 0 0-1.38-2.45 32.351 32.351 0 0 1-13.531-17.39c-1.239-3.66-1.221-3.66-5.172-3.73a9.9 9.9 0 0 1-.052-19.8c.899-.02 1.789 0 3.114 0Zm33.532 112.29c13.625 0 27.251-.03 40.876.05 1.758.01 2.146-.49 2.12-2.17-.1-6.54-.041-13.07-.041-19.61 0-4.73 0-4.66 4.673-4.73 1.509-.02 1.979.33 1.96 1.92-.089 7.63-.018 15.27-.062 22.9-.007 1.18.191 1.7 1.553 1.68 5.573-.08 11.149-.07 16.722-.01 1.272.02 1.623-.34 1.616-1.61-.05-10.39.011-20.78-.048-31.16a9.708 9.708 0 0 0-7.266-9.66c-15.52-4.37-31.067-8.64-46.593-12.98a2.047 2.047 0 0 0-2.326.65c-3.368 3.44-6.786 6.84-10.207 10.23-2.217 2.19-3.754 2.18-5.99-.04-3.319-3.3-6.659-6.57-9.9-9.94a2.53 2.53 0 0 0-2.848-.84c-15.39 4.3-30.8 8.55-46.184 12.85a9.823 9.823 0 0 0-7.442 9.75c-.053 10.38.007 20.77-.047 31.16-.007 1.3.394 1.61 1.636 1.59 5.5-.06 11.011-.09 16.514.01 1.557.03 1.76-.57 1.748-1.9-.06-6.61-.027-13.21-.027-19.81 0-4.81 0-4.75 4.827-4.79 1.488-.01 1.811.45 1.8 1.86-.068 7.5.024 15-.074 22.49-.023 1.71.408 2.17 2.139 2.16 13.617-.08 27.243-.05 40.871-.05Zm-26.452-103.72c.1 2.47-.072 5.35.311 8.23a26.371 26.371 0 0 0 48.364 10.59 26.769 26.769 0 0 0 4.2-14.43c.04-6.6.848-13.31-3.456-19.21-.99-1.36-1.29-1.78-2.77-.66a32.439 32.439 0 0 1-25.4 6.48 33.457 33.457 0 0 1-15.318-6.65c-.654-.5-1.263-1.39-2.02.07-2.339 4.51-4.882 8.94-3.913 14.35a9.427 9.427 0 0 1 0 1.23Zm-3.3-16.07c1.245-2.48 2.263-4.55 3.325-6.61 1.4-2.7 3.37-3.15 5.871-1.33 1.948 1.41 3.819 2.93 5.828 4.25a26.077 26.077 0 0 0 21.862 3.54c5.222-1.38 9.246-4.72 13.442-7.82 2.475-1.83 4.451-1.34 5.856 1.39.994 1.93 1.955 3.87 3 5.95 5.638-10.7 1.737-22.84-8.846-28.05-2.709-1.33-5.5-2.5-8.229-3.79a27.512 27.512 0 0 0-16.036-2.57 23.849 23.849 0 0 0-10.051 3.68c.9.37 1.522.62 2.144.88a22.083 22.083 0 0 1 10.165 8.42c.278.41 1 1 .482 1.4a19.744 19.744 0 0 1-4.767 3.2c-1.121.44-1.371-1.4-2.132-2.1a34.935 34.935 0 0 0-2.638-2.6c-4.927-3.66-10.278-4.6-15.851-1.73-5.264 2.7-7.721 7.26-7.546 13.15.113 3.85 2.283 6.98 4.119 10.74Zm39.663 56.26a17.537 17.537 0 0 1 .009-1.79c.208-1.71-.154-2.23-2.1-1.7a31.361 31.361 0 0 1-15.312.12c-2.43-.55-2.44-.51-2.441 2.03 0 .9.046 1.79-.013 2.68a2.567 2.567 0 0 0 .864 2.18c2.709 2.64 5.4 5.31 8.023 8.03.833.87 1.329.81 2.124-.02 2.187-2.29 4.4-4.56 6.721-6.71 1.557-1.44 2.702-2.91 2.123-4.82Zm-42.9-38.92c-.49-1.21 1.161-3.52-2.028-3.3-2.924.21-4.58 1.19-4.628 3.29-.049 2.12 1.639 3.19 4.5 3.43 3.275.26 1.724-2.09 2.157-3.42Zm66.012-.21c0 3.58 0 3.58 2.02 3.58 2.907 0 4.572-1.2 4.575-3.31s-1.672-3.13-4.561-3.36c-3.112-.25-1.7 1.96-2.033 3.09Z" transform="translate(-759.156 -1453.31)" style="fill:#fff;fill-rule:evenodd"/></svg>