<svg xmlns="http://www.w3.org/2000/svg" width="167" height="169.37" viewBox="0 0 167 169.37">
  <defs>
    <style>
      .cls-1 {
        fill: #fff;
        fill-rule: evenodd;
      }
    </style>
  </defs>
  <path id="Фигура_4" data-name="Фигура 4" class="cls-1" d="M1442.33,1024.73c3.34,0.65,6.75.8,10.06,1.66,27.04,7.07,44.46,24.05,51.29,51.14,4.58,18.17,1.32,35.5-8.51,51.51a2.013,2.013,0,0,0,.07,2.61q12.33,17.88,24.58,35.82c0.34,0.5.67,0.99,1.21,1.79-3.41-.62-6.5-1.18-9.58-1.75-6.59-1.23-13.19-2.44-19.77-3.74-1.33-.26-1.29.49-1.44,1.33q-2.625,14.1-5.28,28.21a2.048,2.048,0,0,1-.16.45,2.944,2.944,0,0,1-1.17-1.36q-11.55-16.815-23.06-33.65a1.732,1.732,0,0,0-2.37-.86,67.486,67.486,0,0,1-41.69-.03,1.68,1.68,0,0,0-2.28.77q-11.475,16.86-23.04,33.67c-0.34.49-.69,0.97-1.27,1.79-0.63-3.35-1.22-6.37-1.78-9.4q-1.86-9.975-3.68-19.95c-0.16-.89-0.47-1.11-1.43-0.93-9.66,1.84-19.32,3.62-29.01,5.42a2.284,2.284,0,0,1,.73-1.49q12.315-18,24.67-35.96a2.228,2.228,0,0,0,.06-2.9c-22.41-35.8-6.73-83.61,32.5-99.24a66.261,66.261,0,0,1,19.16-4.61,9.364,9.364,0,0,0,1.27-.3h9.92Zm-4.97,9.99a58.2,58.2,0,1,0,58.2,58.12A58.367,58.367,0,0,0,1437.36,1034.72Zm-42.01,133.76c3.47-5.07,6.62-9.71,9.83-14.31,0.74-1.07-.14-1.17-0.71-1.49a65.949,65.949,0,0,1-16.59-12.93c-0.97-1.05-1.33-.76-1.99.23-2.66,3.98-5.39,7.92-8.09,11.87-0.64.92-1.28,1.85-2.1,3.04,0.97-.14,1.57-0.2,2.15-0.31,4.32-.81,8.64-1.61,12.95-2.46,1.06-.2,1.59-0.01,1.72,1.2,0.17,1.58.57,3.14,0.86,4.7C1394.01,1161.36,1394.63,1164.69,1395.35,1168.48Zm83.81-.34a1.816,1.816,0,0,0,.54-1.23c0.85-4.53,1.75-9.05,2.51-13.6,0.2-1.2.69-1.4,1.73-1.19,2.58,0.51,5.17,1.02,7.76,1.46a62.284,62.284,0,0,0,7.25,1.2c-3.13-4.58-6.08-8.89-9.03-13.19-1.94-2.84-1.95-2.84-4.33-.48-0.03.04-.08,0.07-0.11,0.11a69.109,69.109,0,0,1-15.23,11.49c-0.48.27-1.46,0.33-.76,1.34C1472.7,1158.71,1475.89,1163.38,1479.16,1168.14Zm-77.77-58.3h-6.36v-26.3l-4.11,1.56v-6.76l5.04-2.28h5.43v33.78Zm8.29-2.19a9.473,9.473,0,0,1-2.58-7.06v-15.35a9.41,9.41,0,0,1,2.59-7.08q2.6-2.52,7.51-2.52,4.95,0,7.53,2.51a9.486,9.486,0,0,1,2.57,7.09v15.35a9.41,9.41,0,0,1-2.59,7.08c-1.72,1.68-4.23,2.52-7.51,2.52S1411.4,1109.34,1409.68,1107.65Zm10.36-4.91a6.624,6.624,0,0,0,.9-3.77v-12.11a6.624,6.624,0,0,0-.9-3.77,3.723,3.723,0,0,0-5.67,0,6.62,6.62,0,0,0-.91,3.77v12.11a6.62,6.62,0,0,0,.91,3.77A3.7,3.7,0,0,0,1420.04,1102.74Zm15.11,4.91a9.473,9.473,0,0,1-2.58-7.06v-15.35a9.41,9.41,0,0,1,2.59-7.08q2.6-2.52,7.51-2.52,4.95,0,7.52,2.51a9.452,9.452,0,0,1,2.58,7.09v15.35a9.41,9.41,0,0,1-2.59,7.08c-1.72,1.68-4.23,2.52-7.51,2.52C1439.37,1110.19,1436.87,1109.34,1435.15,1107.65Zm10.35-4.91a6.541,6.541,0,0,0,.91-3.77v-12.11a6.541,6.541,0,0,0-.91-3.77,3.712,3.712,0,0,0-5.66,0,6.541,6.541,0,0,0-.91,3.77v12.11a6.541,6.541,0,0,0,.91,3.77A3.694,3.694,0,0,0,1445.5,1102.74Zm13.22-13.77a5.854,5.854,0,0,1-1.6-4.38v-2.91a5.854,5.854,0,0,1,1.6-4.38,7.256,7.256,0,0,1,8.99,0,5.957,5.957,0,0,1,1.58,4.43v2.86a5.866,5.866,0,0,1-1.59,4.39A7.26,7.26,0,0,1,1458.72,1088.97Zm19.07-12.91h5.78l-17.65,33.78h-5.78Zm-13.8,9.32a1.678,1.678,0,0,0,.26-1v-2.56a1.543,1.543,0,0,0-.26-0.94,1.087,1.087,0,0,0-1.56,0,1.577,1.577,0,0,0-.27.99v2.51a1.6,1.6,0,0,0,.27,1.01,0.956,0.956,0,0,0,.78.34A0.935,0.935,0,0,0,1463.99,1085.38Zm11.51,23.24a5.857,5.857,0,0,1-1.59-4.38v-2.9a5.857,5.857,0,0,1,1.59-4.38,7.234,7.234,0,0,1,9,0,5.957,5.957,0,0,1,1.58,4.42v2.86a5.866,5.866,0,0,1-1.59,4.39A7.238,7.238,0,0,1,1475.5,1108.62Zm5.27-3.59a1.589,1.589,0,0,0,.27-1v-2.55a1.443,1.443,0,0,0-.27-0.94,0.9,0.9,0,0,0-.77-0.34,0.928,0.928,0,0,0-.78.34,1.527,1.527,0,0,0-.27.98v2.51a1.582,1.582,0,0,0,.27,1.01,0.928,0.928,0,0,0,.78.34A0.9,0.9,0,0,0,1480.77,1105.03Z" transform="translate(-1354.03 -1024.72)"/>
</svg>
